<?xml version="1.0" standalone="no"?><!DOCTYPE svg PUBLIC "-//W3C//DTD SVG 1.1//EN"
        "http://www.w3.org/Graphics/SVG/1.1/DTD/svg11.dtd">
<svg xmlns:xlink="http://www.w3.org/1999/xlink" t="1710500452146" class="icon" viewBox="0 0 1024 1024" version="1.1" xmlns="http://www.w3.org/2000/svg"
     p-id="5130">
    <path d="M676.88 930.46a2075.91 2075.91 0 0 1-330.62 0 277.6 277.6 0 0 1-254.6-254.6 2075.91 2075.91 0 0 1 0-330.62 277.6 277.6 0 0 1 254.6-254.6 2075.91 2075.91 0 0 1 330.62 0 277.6 277.6 0 0 1 254.6 254.6 2075.91 2075.91 0 0 1 0 330.62 277.6 277.6 0 0 1-254.6 254.6z"
          fill="#F76E39" p-id="5131"></path>
    <path d="M497.57 746.61H296.35a90.23 90.23 0 0 1-90.13-90.13V374.07a90.23 90.23 0 0 1 90.13-90.13h402.43a90.24 90.24 0 0 1 90.14 90.13v111.25a17.5 17.5 0 1 1-35 0V374.07a55.2 55.2 0 0 0-55.14-55.13H296.35a55.19 55.19 0 0 0-55.13 55.13v282.41a55.19 55.19 0 0 0 55.13 55.13h201.22a17.5 17.5 0 1 1 0 35z"
          fill="#FFFFFF" p-id="5132"></path>
    <path d="M633.21 364.46a17.49 17.49 0 0 1-17.5-17.5v-91.31a17.5 17.5 0 1 1 35 0V347a17.5 17.5 0 0 1-17.5 17.46zM503.09 593.07H339.64a17.5 17.5 0 0 1 0-35h163.45a17.5 17.5 0 1 1 0 35zM753.49 698.33H645.66a17.5 17.5 0 0 1 0-35h107.83a17.5 17.5 0 0 1 0 35z"
          fill="#FFFFFF" p-id="5133"></path>
    <path d="M699.58 753.1a17.49 17.49 0 0 1-17.5-17.5V627.77a17.5 17.5 0 0 1 35 0V735.6a17.5 17.5 0 0 1-17.5 17.5zM652.85 480.4H339.64a17.5 17.5 0 0 1 0-35h313.21a17.5 17.5 0 0 1 0 35zM361.93 364.46a17.49 17.49 0 0 1-17.5-17.5v-91.31a17.5 17.5 0 0 1 35 0V347a17.5 17.5 0 0 1-17.5 17.46z"
          fill="#FFFFFF" p-id="5134"></path>
    <path d="M699.58 829.75c-82.12 0-148.92-66.8-148.92-148.92s66.8-148.92 148.92-148.92 148.92 66.8 148.92 148.92-66.81 148.92-148.92 148.92z m0-262.84A113.92 113.92 0 1 0 813.5 680.83a114 114 0 0 0-113.92-113.92z"
          fill="#FFFFFF" p-id="5135"></path>
</svg>