<?xml version="1.0" standalone="no"?><!DOCTYPE svg PUBLIC "-//W3C//DTD SVG 1.1//EN"
        "http://www.w3.org/Graphics/SVG/1.1/DTD/svg11.dtd">
<svg xmlns:xlink="http://www.w3.org/1999/xlink" t="1710500399949" class="icon" viewBox="0 0 1024 1024" version="1.1" xmlns="http://www.w3.org/2000/svg"
     p-id="1738">
    <path d="M676.88 928.46a2075.91 2075.91 0 0 1-330.62 0 277.6 277.6 0 0 1-254.6-254.6 2075.91 2075.91 0 0 1 0-330.62 277.6 277.6 0 0 1 254.6-254.6 2075.91 2075.91 0 0 1 330.62 0 277.6 277.6 0 0 1 254.6 254.6 2075.91 2075.91 0 0 1 0 330.62 277.6 277.6 0 0 1-254.6 254.6z"
          fill="#FFAB31" p-id="1739"></path>
    <path d="M479.23 633.13H337.37a17.5 17.5 0 0 1 0-35h141.86a17.5 17.5 0 1 1 0 35z" fill="#FFFFFF" p-id="1740"></path>
    <path d="M479.58 722.1H303a82.08 82.08 0 0 1-82-82V336a82.08 82.08 0 0 1 82-82h403.61a82.08 82.08 0 0 1 82 82v145.35a17.5 17.5 0 0 1-35 0V336a47 47 0 0 0-47-47H303a47 47 0 0 0-47 47v304.11a47 47 0 0 0 47 47h176.58a17.5 17.5 0 1 1 0 35z"
          fill="#FFFFFF" p-id="1741"></path>
    <path d="M681.59 801.88c-80.45 0-145.91-65.45-145.91-145.91s65.46-145.91 145.91-145.91S827.5 575.52 827.5 656s-65.45 145.88-145.91 145.88z m0-256.82A110.91 110.91 0 1 0 792.5 656a111 111 0 0 0-110.91-110.94z"
          fill="#FFFFFF" p-id="1742"></path>
    <path d="M661.39 725.76a17.5 17.5 0 0 1-12.39-5.19l-39.69-40.09a17.5 17.5 0 0 1 24.87-24.62l27.32 27.59 67.5-67.54a17.5 17.5 0 0 1 24.75 24.75l-80 80a17.46 17.46 0 0 1-12.36 5.1zM337.44 553a17.5 17.5 0 0 1-12-30.27l115.62-108.2a17.5 17.5 0 0 1 23.81-0.09l55.36 51 90-77.91A17.5 17.5 0 0 1 633.15 414l-101.82 88.09a17.5 17.5 0 0 1-23.3-0.36l-54.92-50.54-103.72 97.08a17.42 17.42 0 0 1-11.95 4.73z"
          fill="#FFFFFF" p-id="1743"></path>
    <path d="M639.43 473.63a17.5 17.5 0 0 1-17.5-17.5v-59.95h-61.78a17.5 17.5 0 0 1 0-35h79.28a17.5 17.5 0 0 1 17.5 17.5v77.45a17.49 17.49 0 0 1-17.5 17.5z"
          fill="#FFFFFF" p-id="1744"></path>
</svg>