<?xml version="1.0" standalone="no"?><!DOCTYPE svg PUBLIC "-//W3C//DTD SVG 1.1//EN"
        "http://www.w3.org/Graphics/SVG/1.1/DTD/svg11.dtd">
<svg xmlns:xlink="http://www.w3.org/1999/xlink" t="1710500467783" class="icon" viewBox="0 0 1024 1024" version="1.1" xmlns="http://www.w3.org/2000/svg"
     p-id="6460">
    <path d="M676.88 928.46a2075.91 2075.91 0 0 1-330.62 0 277.6 277.6 0 0 1-254.6-254.6 2075.91 2075.91 0 0 1 0-330.62 277.6 277.6 0 0 1 254.6-254.6 2075.91 2075.91 0 0 1 330.62 0 277.6 277.6 0 0 1 254.6 254.6 2075.91 2075.91 0 0 1 0 330.62 277.6 277.6 0 0 1-254.6 254.6z"
          fill="#468EF7" p-id="6461"></path>
    <path d="M546.21 819.36a57.46 57.46 0 0 1-7.16-0.44l-273.36-33.75a58.59 58.59 0 0 1-51.35-58.07V289.9a58.59 58.59 0 0 1 51.35-58.07l273.36-33.75a58.5 58.5 0 0 1 65.68 58.07v504.7a58.49 58.49 0 0 1-58.52 58.51z m0.11-586.73a25 25 0 0 0-3 0.18L270 266.56a23.55 23.55 0 0 0-20.64 23.34v437.2A23.55 23.55 0 0 0 270 750.44l273.36 33.75a23.53 23.53 0 0 0 26.39-23.34v-504.7a23.54 23.54 0 0 0-23.41-23.52zM693.05 779.68h-30.21a17.5 17.5 0 0 1 0-35h30.21c13.66 0 24.78-13.11 24.78-29.21v-89.82a17.5 17.5 0 0 1 35 0v89.82c0 35.4-26.83 64.21-59.78 64.21zM735.33 410.87a17.5 17.5 0 0 1-17.5-17.5v-86.94c0-16.11-11.12-29.21-24.78-29.21h-30.21a17.5 17.5 0 1 1 0-35h30.21c33 0 59.78 28.81 59.78 64.21v86.94a17.51 17.51 0 0 1-17.5 17.5z"
          fill="#FFFFFF" p-id="6462"></path>
    <path d="M502.39 570a17.5 17.5 0 0 1-17.5-17.5v-82a17.5 17.5 0 1 1 35 0v82a17.51 17.51 0 0 1-17.5 17.5zM797.05 528.94H662.84a17.5 17.5 0 1 1 0-35h130.39l-26.11-26.1a17.5 17.5 0 0 1 24.75-24.75l28.81 28.81a33.41 33.41 0 0 1-23.63 57z"
          fill="#FFFFFF" p-id="6463"></path>
</svg>