<?xml version="1.0" standalone="no"?><!DOCTYPE svg PUBLIC "-//W3C//DTD SVG 1.1//EN"
        "http://www.w3.org/Graphics/SVG/1.1/DTD/svg11.dtd">
<svg xmlns:xlink="http://www.w3.org/1999/xlink" t="1710500425223" class="icon" viewBox="0 0 1024 1024" version="1.1" xmlns="http://www.w3.org/2000/svg"
     p-id="3217">
    <path d="M676.88 930.46a2075.91 2075.91 0 0 1-330.62 0 277.6 277.6 0 0 1-254.6-254.6 2075.91 2075.91 0 0 1 0-330.62 277.6 277.6 0 0 1 254.6-254.6 2075.91 2075.91 0 0 1 330.62 0 277.6 277.6 0 0 1 254.6 254.6 2075.91 2075.91 0 0 1 0 330.62 277.6 277.6 0 0 1-254.6 254.6z"
          fill="#D156EF" p-id="3218"></path>
    <path d="M500.12 815.26a69.32 69.32 0 0 1-27.94-5.87l-93.52-41.23-1-0.49a13.66 13.66 0 0 0-12.55 0l-69.64 36a48.63 48.63 0 0 1-71-43.2V307.38a91.75 91.75 0 0 1 91.65-91.65h367.72a91.75 91.75 0 0 1 91.64 91.65v41.27a17.5 17.5 0 1 1-35 0v-41.27a56.71 56.71 0 0 0-56.64-56.65H316.15a56.71 56.71 0 0 0-56.65 56.65v453.06a13.63 13.63 0 0 0 19.89 12.11l69.64-36a48.7 48.7 0 0 1 44.21-0.23l93.06 41a34.35 34.35 0 0 0 27.5 0.06l94.61-41.21a48.67 48.67 0 0 1 44.21 0.46l67.91 35.54a13.63 13.63 0 0 0 20-12.08v-57.9a17.5 17.5 0 0 1 35 0v57.9a48.63 48.63 0 0 1-71.18 43.09l-67.9-35.54a13.63 13.63 0 0 0-12.55-0.05c-0.33 0.17-0.67 0.33-1 0.47l-95.06 41.41a69.32 69.32 0 0 1-27.72 5.79z"
          fill="#FFFFFF" p-id="3219"></path>
    <path d="M672.13 675.86c-83.2 0-150.88-67.68-150.88-150.88s67.68-150.87 150.88-150.87S823 441.79 823 525s-67.68 150.86-150.87 150.86z m0-266.75A115.88 115.88 0 1 0 788 525a116 116 0 0 0-115.87-115.89zM531.25 366.23H350.42a17.5 17.5 0 0 1 0-35h180.83a17.5 17.5 0 0 1 0 35zM458.73 490.85H350.42a17.5 17.5 0 1 1 0-35h108.31a17.5 17.5 0 0 1 0 35zM458.73 615.47H350.42a17.5 17.5 0 0 1 0-35h108.31a17.5 17.5 0 0 1 0 35z"
          fill="#FFFFFF" p-id="3220"></path>
    <path d="M726 518H618.46a17.5 17.5 0 0 1 0-35H726a17.5 17.5 0 0 1 0 35zM726 577H618.46a17.5 17.5 0 0 1 0-35H726a17.5 17.5 0 0 1 0 35z"
          fill="#FFFFFF" p-id="3221"></path>
    <path d="M672.23 614.1a17.5 17.5 0 0 1-17.5-17.5v-91a17.5 17.5 0 1 1 35 0v91a17.51 17.51 0 0 1-17.5 17.5z"
          fill="#FFFFFF" p-id="3222"></path>
    <path d="M672.09 511.18a17.51 17.51 0 0 1-12.38-5.13l-33.83-33.83a17.5 17.5 0 0 1 24.75-24.75l21.46 21.46 21.45-21.46a17.5 17.5 0 0 1 24.75 24.75l-33.83 33.83a17.5 17.5 0 0 1-12.37 5.13z"
          fill="#FFFFFF" p-id="3223"></path>
</svg>