<?xml version="1.0" standalone="no"?><!DOCTYPE svg PUBLIC "-//W3C//DTD SVG 1.1//EN"
        "http://www.w3.org/Graphics/SVG/1.1/DTD/svg11.dtd">
<svg xmlns:xlink="http://www.w3.org/1999/xlink" t="1710500415727" class="icon" viewBox="0 0 1024 1024" version="1.1" xmlns="http://www.w3.org/2000/svg"
     p-id="2774">
    <path d="M676.88 928.46a2075.91 2075.91 0 0 1-330.62 0 277.6 277.6 0 0 1-254.6-254.6 2075.91 2075.91 0 0 1 0-330.62 277.6 277.6 0 0 1 254.6-254.6 2075.91 2075.91 0 0 1 330.62 0 277.6 277.6 0 0 1 254.6 254.6 2075.91 2075.91 0 0 1 0 330.62 277.6 277.6 0 0 1-254.6 254.6z"
          fill="#F43D3D" p-id="2775"></path>
    <path d="M773.38 799.06H609.31c-30.26 0-54-18.87-54-43v-7.63a18.09 18.09 0 0 1 0.21-2.75c6.13-38.52 51.69-68.74 110.23-75.64A66.89 66.89 0 0 1 642.54 653c-12.28-13.85-19-32.27-19-51.88 0-41.68 30.44-75.6 67.85-75.6s67.85 33.92 67.85 75.6c0 19.61-6.76 38-19 51.88a66.9 66.9 0 0 1-23.28 17.09c23.32 2.77 45.17 9.3 63.23 19.07 26.83 14.49 43.53 35.07 47 57.92a16.94 16.94 0 0 1 0.21 2.66v6.36c-0.06 24.09-23.77 42.96-54.02 42.96z m-183-49v6.05c0 1.92 6.93 8 19 8h164c12 0 19-6 19-8v-4.84c-2.28-11.23-12.72-22.58-28.88-31.32-19.51-10.54-45.12-16.35-72.12-16.35-55.1-0.01-96.19 23.79-101.03 46.45z m101-189.53c-18.11 0-32.85 18.21-32.85 40.6 0 22 14.43 39.27 32.85 39.27s32.85-17.25 32.85-39.27c-0.04-22.4-14.78-40.61-32.89-40.61z"
          fill="#FFFFFF" p-id="2776"></path>
    <path d="M486.46 783.39H299.09a86 86 0 0 1-85.92-85.91V318.42a86 86 0 0 1 85.92-85.92h323.44a86 86 0 0 1 85.91 85.92v154.2a17.5 17.5 0 0 1-35 0v-154.2a51 51 0 0 0-50.91-50.92H299.09a51 51 0 0 0-50.92 50.92v379.06a51 51 0 0 0 50.92 50.91h187.37a17.5 17.5 0 0 1 0 35z"
          fill="#FFFFFF" p-id="2777"></path>
    <path d="M586 371.08H335.66a17.5 17.5 0 0 1 0-35H586a17.5 17.5 0 0 1 0 35zM586 474H335.66a17.5 17.5 0 0 1 0-35H586a17.5 17.5 0 0 1 0 35zM530.12 576.9H335.66a17.5 17.5 0 1 1 0-35h194.46a17.5 17.5 0 0 1 0 35zM483.37 679.81H335.66a17.5 17.5 0 0 1 0-35h147.71a17.5 17.5 0 0 1 0 35z"
          fill="#FFFFFF" p-id="2778"></path>
</svg>