<?xml version="1.0" standalone="no"?><!DOCTYPE svg PUBLIC "-//W3C//DTD SVG 1.1//EN"
        "http://www.w3.org/Graphics/SVG/1.1/DTD/svg11.dtd">
<svg xmlns:xlink="http://www.w3.org/1999/xlink" t="1710500429438" class="icon" viewBox="0 0 1024 1024" version="1.1" xmlns="http://www.w3.org/2000/svg"
     p-id="3513">
    <path d="M676.88 927.46a2075.91 2075.91 0 0 1-330.62 0 277.6 277.6 0 0 1-254.6-254.6 2075.91 2075.91 0 0 1 0-330.62 277.6 277.6 0 0 1 254.6-254.6 2075.91 2075.91 0 0 1 330.62 0 277.6 277.6 0 0 1 254.6 254.6 2075.91 2075.91 0 0 1 0 330.62 277.6 277.6 0 0 1-254.6 254.6z"
          fill="#D156EF" p-id="3514"></path>
    <path d="M741.82 660H287.08a75.77 75.77 0 0 1-75.69-75.68V337.61a75.77 75.77 0 0 1 75.69-75.68h454.74a75.77 75.77 0 0 1 75.68 75.68V584.3a75.77 75.77 0 0 1-75.68 75.7zM287.08 297a40.73 40.73 0 0 0-40.69 40.68V584.3a40.73 40.73 0 0 0 40.69 40.7h454.74a40.73 40.73 0 0 0 40.68-40.7V337.61a40.73 40.73 0 0 0-40.68-40.68zM700.86 761.28H328a17.5 17.5 0 0 1 0-35h372.86a17.5 17.5 0 0 1 0 35z"
          fill="#FFFFFF" p-id="3515"></path>
    <path d="M514.45 753.65a17.5 17.5 0 0 1-17.5-17.5v-87a17.5 17.5 0 1 1 35 0v87a17.51 17.51 0 0 1-17.5 17.5zM485.06 542.84a34.53 34.53 0 0 1-34.49-34.49v-97a34.46 34.46 0 0 1 54.69-27.9l66.93 48.52a34.45 34.45 0 0 1 0 55.8l-66.93 48.52a34.41 34.41 0 0 1-20.2 6.55z m0.51-130.47v94.92l65.48-47.46z m66.08 47.9l10.27-14.17z"
          fill="#FFFFFF" p-id="3516"></path>
</svg>