<?xml version="1.0" standalone="no"?><!DOCTYPE svg PUBLIC "-//W3C//DTD SVG 1.1//EN"
        "http://www.w3.org/Graphics/SVG/1.1/DTD/svg11.dtd">
<svg xmlns:xlink="http://www.w3.org/1999/xlink" t="1710500453810" class="icon" viewBox="0 0 1024 1024" version="1.1" xmlns="http://www.w3.org/2000/svg"
     p-id="5279">
    <path d="M676.88 930.46a2075.91 2075.91 0 0 1-330.62 0 277.6 277.6 0 0 1-254.6-254.6 2075.91 2075.91 0 0 1 0-330.62 277.6 277.6 0 0 1 254.6-254.6 2075.91 2075.91 0 0 1 330.62 0 277.6 277.6 0 0 1 254.6 254.6 2075.91 2075.91 0 0 1 0 330.62 277.6 277.6 0 0 1-254.6 254.6z"
          fill="#468EF7" p-id="5280"></path>
    <path d="M727.64 728.68h-87.75a17.5 17.5 0 0 1-17.24-20.48L634 642.35a78.3 78.3 0 1 1 99.46 0l11.39 65.85a17.5 17.5 0 0 1-17.25 20.48z m-67-35h46.18l-9.73-56.27a17.48 17.48 0 0 1 8.42-18.09 43.3 43.3 0 1 0-43.56 0 17.49 17.49 0 0 1 8.42 18.09z"
          fill="#FFFFFF" p-id="5281"></path>
    <path d="M782 817H585.53A48.54 48.54 0 0 1 537 768.51v-26.14a48.55 48.55 0 0 1 48.49-48.49H782a48.55 48.55 0 0 1 48.49 48.49v26.14A48.54 48.54 0 0 1 782 817z m-196.47-88.12A13.51 13.51 0 0 0 572 742.37v26.14A13.5 13.5 0 0 0 585.53 782H782a13.5 13.5 0 0 0 13.49-13.49v-26.14A13.51 13.51 0 0 0 782 728.88zM478.52 773.49H301.74a84 84 0 0 1-83.88-83.88V321.87A84 84 0 0 1 301.74 238h313.78a84 84 0 0 1 83.88 83.88v122.6a17.5 17.5 0 0 1-35 0V321.87A48.94 48.94 0 0 0 615.52 273H301.74a48.94 48.94 0 0 0-48.88 48.88v367.73a48.94 48.94 0 0 0 48.88 48.88h176.78a17.5 17.5 0 0 1 0 35z"
          fill="#FFFFFF" p-id="5282"></path>
    <path d="M580 373.48H337.22a17.5 17.5 0 0 1 0-35H580a17.5 17.5 0 0 1 0 35zM580 473.32H337.22a17.5 17.5 0 0 1 0-35H580a17.5 17.5 0 0 1 0 35zM517.48 573.16H337.22a17.5 17.5 0 0 1 0-35h180.26a17.5 17.5 0 0 1 0 35zM483.85 673H337.22a17.5 17.5 0 0 1 0-35h146.63a17.5 17.5 0 0 1 0 35z"
          fill="#FFFFFF" p-id="5283"></path>
</svg>