<?xml version="1.0" standalone="no"?><!DOCTYPE svg PUBLIC "-//W3C//DTD SVG 1.1//EN"
        "http://www.w3.org/Graphics/SVG/1.1/DTD/svg11.dtd">
<svg xmlns:xlink="http://www.w3.org/1999/xlink" t="1710500459742" class="icon" viewBox="0 0 1024 1024" version="1.1" xmlns="http://www.w3.org/2000/svg"
     p-id="5575">
    <path d="M676.88 928.46a2075.91 2075.91 0 0 1-330.62 0 277.6 277.6 0 0 1-254.6-254.6 2075.91 2075.91 0 0 1 0-330.62 277.6 277.6 0 0 1 254.6-254.6 2075.91 2075.91 0 0 1 330.62 0 277.6 277.6 0 0 1 254.6 254.6 2075.91 2075.91 0 0 1 0 330.62 277.6 277.6 0 0 1-254.6 254.6z"
          fill="#468EF7" p-id="5576"></path>
    <path d="M539.83 755.22H435.72a17.51 17.51 0 0 1-17.5-17.5V290.89a68.39 68.39 0 0 1 92.28-64.08l159.62 59.52a68.68 68.68 0 0 1 44.49 64.08v73.46a17.5 17.5 0 0 1-35 0v-73.46a33.52 33.52 0 0 0-21.72-31.28l-159.62-59.52a33.39 33.39 0 0 0-45 31.28v429.33h86.61a17.5 17.5 0 1 1 0 35z"
          fill="#FFFFFF" p-id="5577"></path>
    <path d="M433.07 755.22H240.48a17.5 17.5 0 0 1-17.5-17.5V477.24a91.25 91.25 0 0 1 59.1-85.12l144.87-54a17.5 17.5 0 0 1 23.62 16.39v383.21a17.51 17.51 0 0 1-17.5 17.5z m-175.07-35h157.57V379.71l-121.26 45.21A56.08 56.08 0 0 0 258 477.24zM696.73 774.29c-12.57 0-25.19-4.91-35.79-14.74-4.27-3.91-84.48-78.44-84.48-154.49a117.24 117.24 0 0 1 35.42-84.16A120.54 120.54 0 0 1 697 486.21h0.27a120.6 120.6 0 0 1 84.84 34.66 118.6 118.6 0 0 1 35.44 84.19c0 78.72-78.47 148.62-85.29 154.54-10.47 9.79-22.97 14.69-35.53 14.69z m0.27-253.08a85.75 85.75 0 0 0-60.57 24.65 82.46 82.46 0 0 0-25 59.2c0 24.56 12.32 54.31 35.63 86a327.1 327.1 0 0 0 37.52 42.69l0.1 0.09c10.49 9.74 19.33 4.25 23.67 0.1l0.7-0.63c0.72-0.62 73.42-63.91 73.42-128.27a83.38 83.38 0 0 0-24.94-59.19 85.8 85.8 0 0 0-60.38-24.66z"
          fill="#FFFFFF" p-id="5578"></path>
    <path d="M696.98 604.18m-33.02 0a33.02 33.02 0 1 0 66.04 0 33.02 33.02 0 1 0-66.04 0Z" fill="#FFFFFF"
          p-id="5579"></path>
    <path d="M552.81 377.11H435.72a17.5 17.5 0 0 1 0-35h117.09a17.5 17.5 0 0 1 0 35zM552.81 467.19H435.72a17.5 17.5 0 0 1 0-35h117.09a17.5 17.5 0 0 1 0 35zM516.76 557.5h-81a17.5 17.5 0 0 1 0-35h81a17.5 17.5 0 0 1 0 35zM516.76 647h-81a17.5 17.5 0 0 1 0-35h81a17.5 17.5 0 0 1 0 35zM322.75 647.35h-65a17.5 17.5 0 0 1 0-35h65a17.5 17.5 0 0 1 0 35zM322.75 557.27h-65a17.5 17.5 0 0 1 0-35h65a17.5 17.5 0 0 1 0 35z"
          fill="#FFFFFF" p-id="5580"></path>
</svg>