<?xml version="1.0" standalone="no"?><!DOCTYPE svg PUBLIC "-//W3C//DTD SVG 1.1//EN"
        "http://www.w3.org/Graphics/SVG/1.1/DTD/svg11.dtd">
<svg xmlns:xlink="http://www.w3.org/1999/xlink" t="1710500431388" class="icon" viewBox="0 0 1024 1024" version="1.1" xmlns="http://www.w3.org/2000/svg"
     p-id="3660">
    <path d="M676.88 929.46a2075.91 2075.91 0 0 1-330.62 0 277.6 277.6 0 0 1-254.6-254.6 2075.91 2075.91 0 0 1 0-330.62 277.6 277.6 0 0 1 254.6-254.6 2075.91 2075.91 0 0 1 330.62 0 277.6 277.6 0 0 1 254.6 254.6 2075.91 2075.91 0 0 1 0 330.62 277.6 277.6 0 0 1-254.6 254.6z"
          fill="#F76E39" p-id="3661"></path>
    <path d="M673.12 795.52h-303.5a102.49 102.49 0 0 1-102.37-102.37v-360.7a102.48 102.48 0 0 1 102.37-102.37h303.5A102.49 102.49 0 0 1 775.5 332.45v360.7a102.5 102.5 0 0 1-102.38 102.37z m-303.5-530.44a67.44 67.44 0 0 0-67.37 67.37v360.7a67.44 67.44 0 0 0 67.37 67.37h303.5a67.45 67.45 0 0 0 67.38-67.37v-360.7a67.45 67.45 0 0 0-67.38-67.37z"
          fill="#FFFFFF" p-id="3662"></path>
    <path d="M328.84 423.8H240.4a17.5 17.5 0 0 1 0-35h88.44a17.5 17.5 0 0 1 0 35zM328.84 636.8H240.4a17.5 17.5 0 1 1 0-35h88.44a17.5 17.5 0 0 1 0 35zM626.3 663.86H445.61c-31.79 0-57.65-22.87-57.65-51v-10a17.92 17.92 0 0 1 0.15-2.31c3.63-27.25 21.34-52.25 49.86-70.41a163.4 163.4 0 0 1 35.47-16.77c-0.32-0.31-0.64-0.62-0.95-0.94a89.07 89.07 0 0 1-26.07-63.47c0-50.29 40.17-91.21 89.54-91.21s89.53 40.92 89.53 91.21a89.06 89.06 0 0 1-26.06 63.47l-0.95 0.93c46.62 15.8 80.18 48.87 85.33 88.95a16.49 16.49 0 0 1 0.15 2.23v8.36c0.04 28.1-25.87 50.96-57.66 50.96zM423 604.1v8.78c0 8.51 10.58 16 22.65 16H626.3c12.07 0 22.66-7.47 22.66-16v-7.16c-2.59-17.18-14.59-33.45-33.9-45.92-20.42-13.18-46.86-20.72-74.84-21.42-2.82 0.13-5.68 0.13-8.5 0-55.17 1.42-103.17 30.26-108.72 65.72z m113-211.37c-30.07 0-54.54 25.21-54.54 56.21 0 29.34 22.06 52.58 50.85 54.42h7.38c28.79-1.84 50.84-25.08 50.84-54.42-0.04-31-24.53-56.21-54.53-56.21z"
          fill="#FFFFFF" p-id="3663"></path>
</svg>