<?xml version="1.0" standalone="no"?><!DOCTYPE svg PUBLIC "-//W3C//DTD SVG 1.1//EN"
        "http://www.w3.org/Graphics/SVG/1.1/DTD/svg11.dtd">
<svg xmlns:xlink="http://www.w3.org/1999/xlink" t="1710500414015" class="icon" viewBox="0 0 1024 1024" version="1.1" xmlns="http://www.w3.org/2000/svg"
     p-id="2626">
    <path d="M676.88 927.46a2075.91 2075.91 0 0 1-330.62 0 277.6 277.6 0 0 1-254.6-254.6 2075.91 2075.91 0 0 1 0-330.62 277.6 277.6 0 0 1 254.6-254.6 2075.91 2075.91 0 0 1 330.62 0 277.6 277.6 0 0 1 254.6 254.6 2075.91 2075.91 0 0 1 0 330.62 277.6 277.6 0 0 1-254.6 254.6z"
          fill="#FFAB31" p-id="2627"></path>
    <path d="M768 777.61H603.9c-29.76 0-54-21.49-54-47.91v-9.12a17.93 17.93 0 0 1 0.16-2.31c5.49-41.2 38.28-73.2 86.26-84.8-0.15-0.58-0.27-1.12-0.39-1.62-0.51-2.26-1.16-5.08-6.14-13-11.4-18.14-13.44-38.35-13.64-40.6v-0.97-40.59c-0.8-7.26-0.32-27.08 23.75-45.33l0.39-0.29c0.14-0.11 0.28-0.2 0.43-0.3 20.66-13.94 35-15.87 45.22-16h0.42c10.2 0.12 24.56 2 45.22 16a4.43 4.43 0 0 1 0.42 0.29l0.4 0.3c24.07 18.25 24.55 38.07 23.76 45.33v40c0 0.49 0 1-0.07 1.49-0.2 2.3-2.23 22.5-13.65 40.67-5 7.92-5.61 10.73-6.13 13-0.12 0.52-0.25 1.08-0.4 1.7 22.77 5.56 42.42 15.8 57.14 29.85a94 94 0 0 1 28.86 56.47 16.71 16.71 0 0 1 0.15 2.23v7.6c-0.06 26.42-24.26 47.91-54.06 47.91z m-183.08-55.79v7.88c0 6.11 7.8 12.91 19 12.91H768c11.18 0 19-6.8 19-12.91v-6.41c-4.16-28.43-28.26-49.66-64.7-56.9a28.35 28.35 0 0 1-22.66-25.75c-0.27-3.77-0.23-10.33 2.4-16.17l0.09-0.41c1.25-5.51 3.11-11.88 10.62-23.83 6.24-9.94 8-21.73 8.35-24.45v-40.22a15.74 15.74 0 0 1 0.08-1.68c0-0.31 0.07-0.66 0.12-1 0-0.91-0.6-6.3-9.75-13.36-14.12-9.44-21.45-9.69-25.46-9.74s-11.34 0.3-25.46 9.74c-9.11 7-9.71 12.41-9.75 13.35 0.05 0.3 0.09 0.61 0.12 0.91 0.05 0.56 0.09 1.22 0.09 1.78v40.21c0.33 2.7 2.09 14.5 8.34 24.45 7.51 11.95 9.37 18.32 10.62 23.83 0 0.16 0.07 0.31 0.11 0.46a37.3 37.3 0 0 1 2.71 14.16 28.15 28.15 0 0 1-22.78 27.6c-36.66 7.13-60.93 27.85-65.17 55.55z m48.69-145.13zM721.32 533z m0.13-0.92v0.1z m-70.68 0z"
          fill="#FFFFFF" p-id="2628"></path>
    <path d="M452.53 762.45A264.82 264.82 0 1 1 702.52 410a17.5 17.5 0 0 1-33 11.57 229.86 229.86 0 1 0-217 305.84 232.72 232.72 0 0 0 39.48-3.32 17.5 17.5 0 0 1 6 34.49 267.73 267.73 0 0 1-45.47 3.87z"
          fill="#FFFFFF" p-id="2629"></path>
    <path d="M361.31 596.07a17.5 17.5 0 0 1-11.24-30.92l85.39-71.46a1 1 0 0 0 0.36-0.77V314.47a17.5 17.5 0 0 1 35 0v178.45a35.9 35.9 0 0 1-12.9 27.61L372.54 592a17.47 17.47 0 0 1-11.23 4.07z"
          fill="#FFFFFF" p-id="2630"></path>
</svg>