<?xml version="1.0" standalone="no"?><!DOCTYPE svg PUBLIC "-//W3C//DTD SVG 1.1//EN"
        "http://www.w3.org/Graphics/SVG/1.1/DTD/svg11.dtd">
<svg xmlns:xlink="http://www.w3.org/1999/xlink" t="1710500438601" class="icon" viewBox="0 0 1024 1024" version="1.1" xmlns="http://www.w3.org/2000/svg"
     p-id="4100">
    <path d="M676.88 927.46a2075.91 2075.91 0 0 1-330.62 0 277.6 277.6 0 0 1-254.6-254.6 2075.91 2075.91 0 0 1 0-330.62 277.6 277.6 0 0 1 254.6-254.6 2075.91 2075.91 0 0 1 330.62 0 277.6 277.6 0 0 1 254.6 254.6 2075.91 2075.91 0 0 1 0 330.62 277.6 277.6 0 0 1-254.6 254.6z"
          fill="#F76E39" p-id="4101"></path>
    <path d="M496.32 715.63h-190.5a86.36 86.36 0 0 1-86.27-86.26V362a86.37 86.37 0 0 1 86.27-86.27h381A86.37 86.37 0 0 1 773.09 362v105.32a17.5 17.5 0 1 1-35 0V362a51.33 51.33 0 0 0-51.27-51.27h-381A51.33 51.33 0 0 0 254.55 362v267.37a51.33 51.33 0 0 0 51.27 51.26h190.5a17.5 17.5 0 1 1 0 35z"
          fill="#FFFFFF" p-id="4102"></path>
    <path d="M624.74 353.84a17.51 17.51 0 0 1-17.5-17.5v-86.46a17.5 17.5 0 0 1 35 0v86.46a17.5 17.5 0 0 1-17.5 17.5zM381.91 570.27h-49.69a17.5 17.5 0 0 1 0-35h49.69a17.5 17.5 0 1 1 0 35zM381.91 464.94h-49.69a17.5 17.5 0 0 1 0-35h49.69a17.5 17.5 0 0 1 0 35zM520.86 464.94h-49.69a17.5 17.5 0 0 1 0-35h49.69a17.5 17.5 0 0 1 0 35zM520.86 570.27h-49.69a17.5 17.5 0 0 1 0-35h49.69a17.5 17.5 0 1 1 0 35zM659.81 464.94h-49.69a17.5 17.5 0 0 1 0-35h49.69a17.5 17.5 0 0 1 0 35zM687.36 673.16h-50.83a17.5 17.5 0 0 1 0-35h50.83a17.5 17.5 0 0 1 0 35z"
          fill="#FFFFFF" p-id="4103"></path>
    <path d="M687.58 672.76a17.49 17.49 0 0 1-17.5-17.5V584a17.5 17.5 0 0 1 35 0v71.3a17.5 17.5 0 0 1-17.5 17.46zM367.9 353.84a17.51 17.51 0 0 1-17.5-17.5v-86.46a17.5 17.5 0 0 1 35 0v86.46a17.5 17.5 0 0 1-17.5 17.5z"
          fill="#FFFFFF" p-id="4104"></path>
    <path d="M687.58 794.35c-78.26 0-141.93-63.67-141.93-141.93S609.32 510.5 687.58 510.5 829.5 574.17 829.5 652.42s-63.67 141.93-141.92 141.93z m0-248.85A106.93 106.93 0 1 0 794.5 652.42 107 107 0 0 0 687.58 545.5z"
          fill="#FFFFFF" p-id="4105"></path>
</svg>