<?xml version="1.0" standalone="no"?><!DOCTYPE svg PUBLIC "-//W3C//DTD SVG 1.1//EN"
        "http://www.w3.org/Graphics/SVG/1.1/DTD/svg11.dtd">
<svg xmlns:xlink="http://www.w3.org/1999/xlink" t="1710500448987" class="icon" viewBox="0 0 1024 1024" version="1.1" xmlns="http://www.w3.org/2000/svg"
     p-id="4835">
    <path d="M676.88 930.46a2075.91 2075.91 0 0 1-330.62 0 277.6 277.6 0 0 1-254.6-254.6 2075.91 2075.91 0 0 1 0-330.62 277.6 277.6 0 0 1 254.6-254.6 2075.91 2075.91 0 0 1 330.62 0 277.6 277.6 0 0 1 254.6 254.6 2075.91 2075.91 0 0 1 0 330.62 277.6 277.6 0 0 1-254.6 254.6z"
          fill="#FFAB31" p-id="4836"></path>
    <path d="M511.52 565.27h-1.22c-22.24-0.28-43.86-8.19-62.53-22.88-0.29-0.23-0.57-0.46-0.85-0.71L286.5 398.17a17.5 17.5 0 0 1 23.34-26.09l160 143.12c26 20.22 57.12 20.21 83.37 0l160-143.1a17.5 17.5 0 0 1 23.34 26.09L576.08 541.67q-0.44 0.39-0.9 0.75C556 557.38 534 565.27 511.52 565.27z"
          fill="#FFFFFF" p-id="4837"></path>
    <path d="M333.51 584.59a17.5 17.5 0 0 1-11.34-30.83l74-62.91a17.5 17.5 0 0 1 22.67 26.67l-74 62.91a17.41 17.41 0 0 1-11.33 4.16zM689.67 584.59a17.41 17.41 0 0 1-11.33-4.16l-74-62.91A17.5 17.5 0 1 1 627 490.85l74 62.91a17.5 17.5 0 0 1-11.34 30.83z"
          fill="#FFFFFF" p-id="4838"></path>
    <path d="M738.78 726.14H284.22a86.82 86.82 0 0 1-86.72-86.72V373.58a86.82 86.82 0 0 1 86.72-86.72h454.56a86.82 86.82 0 0 1 86.72 86.72v265.84a86.82 86.82 0 0 1-86.72 86.72zM284.22 321.86a51.78 51.78 0 0 0-51.72 51.72v265.84a51.78 51.78 0 0 0 51.72 51.72h454.56a51.78 51.78 0 0 0 51.72-51.72V373.58a51.78 51.78 0 0 0-51.72-51.72z"
          fill="#FFFFFF" p-id="4839"></path>
</svg>