<?xml version="1.0" standalone="no"?><!DOCTYPE svg PUBLIC "-//W3C//DTD SVG 1.1//EN"
        "http://www.w3.org/Graphics/SVG/1.1/DTD/svg11.dtd">
<svg xmlns:xlink="http://www.w3.org/1999/xlink" t="1710500466510" class="icon" viewBox="0 0 1024 1024" version="1.1" xmlns="http://www.w3.org/2000/svg"
     p-id="6313">
    <path d="M676.88 930.46a2075.91 2075.91 0 0 1-330.62 0 277.6 277.6 0 0 1-254.6-254.6 2075.91 2075.91 0 0 1 0-330.62 277.6 277.6 0 0 1 254.6-254.6 2075.91 2075.91 0 0 1 330.62 0 277.6 277.6 0 0 1 254.6 254.6 2075.91 2075.91 0 0 1 0 330.62 277.6 277.6 0 0 1-254.6 254.6z"
          fill="#F43D3D" p-id="6314"></path>
    <path d="M713.33 791.46H318.7a61.05 61.05 0 0 1-61-61V521.05l-7 5.11c-18.86 13.84-46.4 11.33-62.7-5.65a17.93 17.93 0 0 1-1.89-2.36c-13.22-19.73-8.59-47 10.31-61l279.41-214.29 0.34-0.25c23.28-17 56-17 79.59-0.08l0.44 0.33 279.38 214.26c18.9 14 23.54 41.3 10.32 61a42.71 42.71 0 0 1-28.24 18.53 42 42 0 0 1-32.33-7.58l-11-8.05v209.46a61 61 0 0 1-61 60.98z m-438.1-322.39a17.51 17.51 0 0 1 17.49 17.5v243.91a26 26 0 0 0 26 26h394.61a26 26 0 0 0 26-26V486.57a17.5 17.5 0 0 1 27.83-14.12l38.84 28.4a7.14 7.14 0 0 0 5.61 1.36 8 8 0 0 0 5.24-3.55c2.9-4.33 1.94-10.47-2.1-13.42l-0.31-0.24-279.29-214.18c-11.23-7.93-27.22-7.95-38.2-0.05L217.62 485l-0.32 0.24a10 10 0 0 0-2.83 12.09c4.3 3.34 11.33 3.71 15.61 0.58l34.81-25.46a17.49 17.49 0 0 1 10.34-3.38z"
          fill="#FFFFFF" p-id="6315"></path>
    <path d="M592.9 727.35a17.49 17.49 0 0 1-17.5-17.5v-67.44a58.74 58.74 0 0 0-58.67-58.66 59.44 59.44 0 0 0-59.37 59.36v66.74a17.5 17.5 0 0 1-35 0v-66.74a94 94 0 0 1 188-0.7v67.44a17.5 17.5 0 0 1-17.46 17.5zM772.57 379.34a17.5 17.5 0 0 1-17.5-17.5V289h-51.3v8.31a17.5 17.5 0 0 1-35 0V286a32 32 0 0 1 32-32h57.34a32 32 0 0 1 32 32v75.88a17.49 17.49 0 0 1-17.54 17.46z"
          fill="#FFFFFF" p-id="6316"></path>
</svg>