<?xml version="1.0" standalone="no"?><!DOCTYPE svg PUBLIC "-//W3C//DTD SVG 1.1//EN"
        "http://www.w3.org/Graphics/SVG/1.1/DTD/svg11.dtd">
<svg xmlns:xlink="http://www.w3.org/1999/xlink" t="1710500411932" class="icon" viewBox="0 0 1024 1024" version="1.1" xmlns="http://www.w3.org/2000/svg"
     p-id="2478">
    <path d="M676.88 928.46a2075.91 2075.91 0 0 1-330.62 0 277.6 277.6 0 0 1-254.6-254.6 2075.91 2075.91 0 0 1 0-330.62 277.6 277.6 0 0 1 254.6-254.6 2075.91 2075.91 0 0 1 330.62 0 277.6 277.6 0 0 1 254.6 254.6 2075.91 2075.91 0 0 1 0 330.62 277.6 277.6 0 0 1-254.6 254.6z"
          fill="#F76E39" p-id="2479"></path>
    <path d="M685.36 805.94H491.47a62.9 62.9 0 0 1-33.63-9.69 62.85 62.85 0 0 1-18.35-12.76L312 656a63.15 63.15 0 0 1 89.3-89.31l27 27.05V411.35a63.15 63.15 0 1 1 126.29 0v120.09h130.77a63.22 63.22 0 0 1 63.14 63.15V742.8a63.21 63.21 0 0 1-63.14 63.14zM356.63 583.19a28.14 28.14 0 0 0-19.91 48l127.52 127.55a27.9 27.9 0 0 0 8.83 6 18.83 18.83 0 0 1 2.83 1.53 27.94 27.94 0 0 0 15.57 4.7h193.89a28.17 28.17 0 0 0 28.14-28.17V594.59a28.18 28.18 0 0 0-28.14-28.15H537.11a17.5 17.5 0 0 1-17.5-17.5V411.35a28.15 28.15 0 1 0-56.29 0V636a17.5 17.5 0 0 1-29.87 12.38l-56.92-56.93a28.1 28.1 0 0 0-19.9-8.26z"
          fill="#FFFFFF" p-id="2480"></path>
    <path d="M390.4 489.64a17.49 17.49 0 0 1-14.51-7.7A138.75 138.75 0 0 1 352 403.86C352 327 414.57 264.4 491.47 264.4S630.94 327 630.94 403.86a139.18 139.18 0 0 1-20.53 72.86 17.5 17.5 0 0 1-29.83-18.31 104.47 104.47 0 1 0-175.7 3.92 17.51 17.51 0 0 1-14.48 27.31z"
          fill="#FFFFFF" p-id="2481"></path>
    <path d="M323.36 511.68a17.51 17.51 0 0 1-15.43-9.21 208.78 208.78 0 0 1-24.77-98.61c0-114.86 93.45-208.3 208.31-208.3S699.78 289 699.78 403.86a207.43 207.43 0 0 1-13.23 73.19 17.5 17.5 0 1 1-32.77-12.3 172.53 172.53 0 0 0 11-60.89c0-95.56-77.75-173.3-173.31-173.3s-173.31 77.74-173.31 173.3a173.6 173.6 0 0 0 20.59 82 17.51 17.51 0 0 1-15.39 25.8z"
          fill="#FFFFFF" p-id="2482"></path>
</svg>