<?xml version="1.0" standalone="no"?><!DOCTYPE svg PUBLIC "-//W3C//DTD SVG 1.1//EN"
        "http://www.w3.org/Graphics/SVG/1.1/DTD/svg11.dtd">
<svg xmlns:xlink="http://www.w3.org/1999/xlink" t="1710500465098" class="icon" viewBox="0 0 1024 1024" version="1.1" xmlns="http://www.w3.org/2000/svg"
     p-id="6166">
    <path d="M676.88 930.46a2075.91 2075.91 0 0 1-330.62 0 277.6 277.6 0 0 1-254.6-254.6 2075.91 2075.91 0 0 1 0-330.62 277.6 277.6 0 0 1 254.6-254.6 2075.91 2075.91 0 0 1 330.62 0 277.6 277.6 0 0 1 254.6 254.6 2075.91 2075.91 0 0 1 0 330.62 277.6 277.6 0 0 1-254.6 254.6z"
          fill="#D156EF" p-id="6167"></path>
    <path d="M233.68 709.79a17.37 17.37 0 0 1-4-0.45c-28.15-6.5-45.19-16.54-53.63-31.61-8.07-14.44-5.84-29.17-4-41 0.13-0.85 0.25-1.69 0.38-2.53 5.28-36 47-48.43 80.61-58.41 13.52-4 27.5-8.19 34.35-12.62s5-16.42 3.57-22.19c-14.19-13.18-25.32-30.28-32.55-50-10-6.92-17.15-19.73-19.19-35.24-2.19-16.62 2.28-31.84 11.26-40.95 7.42-66.56 46.55-106 105.87-106h0.41a17.5 17.5 0 0 1 0.06 35h-0.51c-22 0-39.22 7.39-51.28 21.93-11.56 13.94-18.61 34.59-20.38 59.72a17.53 17.53 0 0 1-9.57 14.39c-0.82 1.6-1.9 5.7-1.16 11.34 0.78 5.94 3.07 9.71 4.24 10.85a17.5 17.5 0 0 1 11.27 11.46c5.57 18 15.55 33.73 28.12 44.32a17.42 17.42 0 0 1 4.73 6.32 75.34 75.34 0 0 1 5 25.88c0.3 18.54-7.13 33.66-20.92 42.58-11.07 7.16-26.77 11.83-43.38 16.77-22.76 6.77-53.92 16-56 30-0.14 0.9-0.27 1.8-0.41 2.69-1.19 7.89-2.23 14.71 0 18.67 1.79 3.19 8.19 9.34 31 14.6a17.5 17.5 0 0 1-3.92 34.55z m43.52-248.08z m-3.74-21.19zM787.23 709.79a17.5 17.5 0 0 1-3.92-34.55c22.77-5.26 29.17-11.41 31-14.6 2.22-4 1.18-10.78 0-18.67-0.13-0.89-0.27-1.79-0.4-2.68-2-13.92-33.21-23.2-56-30-16.61-4.94-32.3-9.61-43.37-16.77-13.8-8.92-21.23-24-20.93-42.58a75.52 75.52 0 0 1 5-25.88 17.42 17.42 0 0 1 4.73-6.32c12.56-10.59 22.55-26.33 28.12-44.32A17.48 17.48 0 0 1 742.75 462c1.17-1.14 3.46-4.91 4.24-10.85 0.74-5.64-0.34-9.74-1.17-11.34a17.52 17.52 0 0 1-9.56-14.39c-1.77-25.13-8.82-45.78-20.39-59.72-12.06-14.54-29.31-21.92-51.28-21.93h-0.51a17.5 17.5 0 0 1 0.07-35h0.4c59.33 0 98.45 39.44 105.88 106 9 9.11 13.44 24.33 11.26 40.95-2 15.51-9.21 28.32-19.19 35.24-7.24 19.74-18.36 36.84-32.56 50-1.39 5.77-3.28 17.76 3.57 22.19s20.84 8.59 34.36 12.62c33.56 10 75.33 22.41 80.61 58.42 0.12 0.83 0.25 1.67 0.38 2.52 1.79 11.84 4 26.57-4.05 41-8.43 15.07-25.47 25.11-53.63 31.61a17.29 17.29 0 0 1-3.95 0.47zM743.7 461.71z m3.75-21.19z m-83.3-96.76z"
          fill="#FFFFFF" p-id="6168"></path>
    <path d="M511.42 769.82h-0.07c-65.3-0.26-114-3.76-149-10.7-33.39-6.62-54.71-16.44-67.1-30.91-16.18-18.9-12.85-40.87-10.42-56.91q0.26-1.59 0.48-3.18c6.2-42.28 57-57.4 97.81-69.54 18-5.36 35-10.43 44.14-16.32 11.6-7.5 8.06-26.25 6-33.82-18-16.43-32.1-38.05-41.07-63.13-12.07-7.72-20.84-23.05-23.31-41.84-2.64-20.12 2.91-38.39 13.94-48.65C391.45 313 439 264.5 511.16 264.5h0.52c72.21 0 119.71 48.5 128.32 130.32 11 10.26 16.59 28.53 13.94 48.65-2.47 18.78-11.23 34.12-23.31 41.84-9 25.08-23 46.7-41.06 63.13-2 7.56-5.56 26.32 6 33.82 9.11 5.89 26.13 11 44.14 16.32 40.81 12.14 91.61 27.26 97.81 69.55 0.15 1 0.32 2.11 0.48 3.17 2.43 16 5.77 38-10.42 56.92-12.38 14.46-33.71 24.28-67.1 30.9-35 6.94-83.72 10.44-149 10.7zM411.19 455.88a17.53 17.53 0 0 1 12 11.68c7.21 23.31 20.2 43.75 36.57 57.55a17.42 17.42 0 0 1 4.73 6.32c1.47 3.32 5.7 16.09 5.94 30.69 0.35 21.63-8.24 39.22-24.19 49.53-13.32 8.62-32.67 14.38-53.16 20.47-31.27 9.31-70.2 20.89-73.16 41.09-0.16 1.12-0.33 2.23-0.5 3.35-2.34 15.4-2.82 22.79 2.4 28.89 11.18 13.09 53.18 28.81 189.6 29.37 75.31-0.31 169.31-5.66 189.61-29.37 5.22-6.1 4.74-13.49 2.4-28.89-0.17-1.12-0.33-2.23-0.5-3.34-3-20.21-41.89-31.79-73.16-41.1-20.49-6.09-39.84-11.85-53.17-20.47-15.94-10.31-24.53-27.9-24.18-49.53 0.24-14.6 4.48-27.37 5.94-30.7a17.7 17.7 0 0 1 4.73-6.31c16.37-13.8 29.36-34.24 36.57-57.55a17.53 17.53 0 0 1 12-11.68c1.58-0.9 6.22-6.53 7.59-17 1.33-10.16-1.49-16.71-2.83-18.24a17.5 17.5 0 0 1-10.57-14.86c-2.8-39.7-18.76-106.31-94.16-106.31h-0.59c-75.32 0-91.28 66.61-94.08 106.31a17.53 17.53 0 0 1-10.58 14.86c-1.34 1.53-4.16 8.08-2.83 18.24 1.39 10.47 6 16.12 7.58 17z m200.7-0.06z m5.14-34.9z m-211.22 0z"
          fill="#FFFFFF" p-id="6169"></path>
</svg>