<?xml version="1.0" standalone="no"?><!DOCTYPE svg PUBLIC "-//W3C//DTD SVG 1.1//EN"
        "http://www.w3.org/Graphics/SVG/1.1/DTD/svg11.dtd">
<svg xmlns:xlink="http://www.w3.org/1999/xlink" t="1710500409110" class="icon" viewBox="0 0 1024 1024" version="1.1" xmlns="http://www.w3.org/2000/svg"
     p-id="2329">
    <path d="M676.88 927.46a2075.91 2075.91 0 0 1-330.62 0 277.6 277.6 0 0 1-254.6-254.6 2075.91 2075.91 0 0 1 0-330.62 277.6 277.6 0 0 1 254.6-254.6 2075.91 2075.91 0 0 1 330.62 0 277.6 277.6 0 0 1 254.6 254.6 2075.91 2075.91 0 0 1 0 330.62 277.6 277.6 0 0 1-254.6 254.6z"
          fill="#F43D3D" p-id="2330"></path>
    <path d="M255.47 372.46a17.5 17.5 0 0 1-2.85-34.76l514.06-85.48a17.5 17.5 0 1 1 5.74 34.52l-514.06 85.48a17.79 17.79 0 0 1-2.89 0.24zM260.89 429.93a17.5 17.5 0 0 1-1.53-34.93l519.1-45.87a17.5 17.5 0 0 1 3.08 34.87l-519.09 45.86c-0.53 0.04-1.05 0.07-1.56 0.07z"
          fill="#FFFFFF" p-id="2331"></path>
    <path d="M323.26 480.84a17.51 17.51 0 0 1-17.5-17.5V322.75a17.5 17.5 0 0 1 35 0v140.59a17.5 17.5 0 0 1-17.5 17.5zM394.18 480.84a17.51 17.51 0 0 1-17.5-17.5v-155a17.5 17.5 0 0 1 35 0v155a17.5 17.5 0 0 1-17.5 17.5zM465.1 480.84a17.5 17.5 0 0 1-17.5-17.5V293.91a17.5 17.5 0 1 1 35 0v169.43a17.51 17.51 0 0 1-17.5 17.5z"
          fill="#FFFFFF" p-id="2332"></path>
    <path d="M512.52 718c-88.35 0-156.53-20.47-202.65-60.85-42.19-36.93-66.05-90.3-70.93-158.62a41.79 41.79 0 0 1 41.68-44.8h463.86a41.8 41.8 0 0 1 41.69 44.63C776.39 644.14 684.32 718 512.52 718z m-231.9-229.23a6.71 6.71 0 0 0-4.95 2.15 6.83 6.83 0 0 0-1.82 5.16c4.2 58.79 24.07 104.14 59.07 134.78 39.55 34.62 100 52.18 179.6 52.18 81.2 0 142.2-17.55 181.29-52.15 34.62-30.65 53.41-74.75 57.44-134.84a6.81 6.81 0 0 0-1.83-5.14 6.73 6.73 0 0 0-4.94-2.14z"
          fill="#FFFFFF" p-id="2333"></path>
    <path d="M602.79 772.83H423.54a31.3 31.3 0 0 1-31.26-31.26v-48.51h35v44.77h171.77v-44.77h35v48.51a31.3 31.3 0 0 1-31.26 31.26z"
          fill="#FFFFFF" p-id="2334"></path>
</svg>