<?xml version="1.0" standalone="no"?><!DOCTYPE svg PUBLIC "-//W3C//DTD SVG 1.1//EN"
        "http://www.w3.org/Graphics/SVG/1.1/DTD/svg11.dtd">
<svg xmlns:xlink="http://www.w3.org/1999/xlink" t="1710500460901" class="icon" viewBox="0 0 1024 1024" version="1.1" xmlns="http://www.w3.org/2000/svg"
     p-id="5724">
    <path d="M676.88 929.46a2075.91 2075.91 0 0 1-330.62 0 277.6 277.6 0 0 1-254.6-254.6 2075.91 2075.91 0 0 1 0-330.62 277.6 277.6 0 0 1 254.6-254.6 2075.91 2075.91 0 0 1 330.62 0 277.6 277.6 0 0 1 254.6 254.6 2075.91 2075.91 0 0 1 0 330.62 277.6 277.6 0 0 1-254.6 254.6z"
          fill="#468EF7" p-id="5725"></path>
    <path d="M488.08 713.43H280.33a63.77 63.77 0 0 1-63.69-63.69V372.19a63.77 63.77 0 0 1 63.69-63.69h162.58a55.82 55.82 0 0 1 44.28 21.6l48.73 62.35a21 21 0 0 0 16.7 8.15H726a63.76 63.76 0 0 1 63.69 63.69v72.44a17.5 17.5 0 0 1-35 0v-72.44A28.72 28.72 0 0 0 726 435.6H552.62a55.82 55.82 0 0 1-44.28-21.6l-48.73-62.35a21 21 0 0 0-16.7-8.15H280.33a28.72 28.72 0 0 0-28.69 28.69v277.55a28.72 28.72 0 0 0 28.69 28.69h207.75a17.5 17.5 0 1 1 0 35z"
          fill="#FFFFFF" p-id="5726"></path>
    <path d="M734.55 365.52H580.28a17.5 17.5 0 0 1 0-35h154.27a17.5 17.5 0 0 1 0 35zM595.05 536.51h-280a17.5 17.5 0 1 1 0-35h280a17.5 17.5 0 0 1 0 35zM491.35 618.83H315.09a17.5 17.5 0 0 1 0-35h176.26a17.5 17.5 0 0 1 0 35zM772.07 747.28H599.86a57.39 57.39 0 0 1 0-114.77c1.74 0 3.48 0.08 5.2 0.24a93.59 93.59 0 0 1 182.85 2 57.38 57.38 0 0 1-15.84 112.53z m0.52-35z m-172 0h171.68a22.38 22.38 0 0 0-0.1-44.76 17.51 17.51 0 0 1-17.41-16.67 58.56 58.56 0 0 0-117.06 2.86v1.47a17.5 17.5 0 0 1-26.45 15.46 22.38 22.38 0 1 0-11.61 41.64h1z"
          fill="#FFFFFF" p-id="5727"></path>
</svg>