<?xml version="1.0" standalone="no"?><!DOCTYPE svg PUBLIC "-//W3C//DTD SVG 1.1//EN"
        "http://www.w3.org/Graphics/SVG/1.1/DTD/svg11.dtd">
<svg xmlns:xlink="http://www.w3.org/1999/xlink" t="1710500450614" class="icon" viewBox="0 0 1024 1024" version="1.1" xmlns="http://www.w3.org/2000/svg"
     p-id="4983">
    <path d="M676.88 927.46a2075.91 2075.91 0 0 1-330.62 0 277.6 277.6 0 0 1-254.6-254.6 2075.91 2075.91 0 0 1 0-330.62 277.6 277.6 0 0 1 254.6-254.6 2075.91 2075.91 0 0 1 330.62 0 277.6 277.6 0 0 1 254.6 254.6 2075.91 2075.91 0 0 1 0 330.62 277.6 277.6 0 0 1-254.6 254.6z"
          fill="#FFAB31" p-id="4984"></path>
    <path d="M748.82 746.09H283.18a75.77 75.77 0 0 1-75.68-75.68V361.89a75.77 75.77 0 0 1 75.68-75.69h465.64a75.77 75.77 0 0 1 75.68 75.69v308.52a75.77 75.77 0 0 1-75.68 75.68zM283.18 321.2a40.73 40.73 0 0 0-40.68 40.69v308.52a40.73 40.73 0 0 0 40.68 40.68h465.64a40.73 40.73 0 0 0 40.68-40.68V361.89a40.73 40.73 0 0 0-40.68-40.69z"
          fill="#FFFFFF" p-id="4985"></path>
    <path d="M666.54 372.33a17.49 17.49 0 0 1-17.5-17.5V250.91a17.5 17.5 0 1 1 35 0v103.92a17.5 17.5 0 0 1-17.5 17.5zM397.32 643.46h-51.81a17.5 17.5 0 0 1 0-35h51.81a17.5 17.5 0 0 1 0 35zM397.32 550.54h-51.81a17.5 17.5 0 0 1 0-35h51.81a17.5 17.5 0 0 1 0 35zM542.19 550.54h-51.81a17.5 17.5 0 0 1 0-35h51.81a17.5 17.5 0 0 1 0 35zM806.58 449.19H226a17.5 17.5 0 0 1 0-35h580.58a17.5 17.5 0 0 1 0 35zM542.19 643.46h-51.81a17.5 17.5 0 0 1 0-35h51.81a17.5 17.5 0 0 1 0 35zM687.05 550.54h-51.8a17.5 17.5 0 0 1 0-35h51.8a17.5 17.5 0 0 1 0 35zM687.05 643.46h-51.8a17.5 17.5 0 0 1 0-35h51.8a17.5 17.5 0 0 1 0 35zM365 372.33a17.49 17.49 0 0 1-17.5-17.5V250.91a17.5 17.5 0 1 1 35 0v103.92a17.5 17.5 0 0 1-17.5 17.5z"
          fill="#FFFFFF" p-id="4986"></path>
</svg>