<?xml version="1.0" standalone="no"?><!DOCTYPE svg PUBLIC "-//W3C//DTD SVG 1.1//EN"
        "http://www.w3.org/Graphics/SVG/1.1/DTD/svg11.dtd">
<svg xmlns:xlink="http://www.w3.org/1999/xlink" t="1710500401845" class="icon" viewBox="0 0 1024 1024" version="1.1" xmlns="http://www.w3.org/2000/svg"
     p-id="1888">
    <path d="M676.88 930.46a2075.91 2075.91 0 0 1-330.62 0 277.6 277.6 0 0 1-254.6-254.6 2075.91 2075.91 0 0 1 0-330.62 277.6 277.6 0 0 1 254.6-254.6 2075.91 2075.91 0 0 1 330.62 0 277.6 277.6 0 0 1 254.6 254.6 2075.91 2075.91 0 0 1 0 330.62 277.6 277.6 0 0 1-254.6 254.6z"
          fill="#D156EF" p-id="1889"></path>
    <path d="M512 787.86a17.48 17.48 0 0 1-12.53-5.28l-84.42-86.53H288a79.29 79.29 0 0 1-79.2-79.21V350.7a79.29 79.29 0 0 1 79.2-79.2h448a79.29 79.29 0 0 1 79.2 79.2v266.14a79.29 79.29 0 0 1-79.2 79.21H609l-84.42 86.53a17.47 17.47 0 0 1-12.58 5.28zM288 306.5a44.25 44.25 0 0 0-44.2 44.2v266.14a44.25 44.25 0 0 0 44.2 44.21h134.45a17.5 17.5 0 0 1 12.55 5.28l77 79 77-79a17.48 17.48 0 0 1 12.53-5.28H736a44.25 44.25 0 0 0 44.2-44.21V350.7a44.25 44.25 0 0 0-44.2-44.2z"
          fill="#FFFFFF" p-id="1890"></path>
    <path d="M687.55 413.09H334.49a17.5 17.5 0 0 1 0-35h353.06a17.5 17.5 0 0 1 0 35zM687.55 504H334.49a17.5 17.5 0 0 1 0-35h353.06a17.5 17.5 0 0 1 0 35zM503.55 595H334.49a17.5 17.5 0 0 1 0-35h169.06a17.5 17.5 0 0 1 0 35z"
          fill="#FFFFFF" p-id="1891"></path>
</svg>