<?xml version="1.0" standalone="no"?><!DOCTYPE svg PUBLIC "-//W3C//DTD SVG 1.1//EN"
        "http://www.w3.org/Graphics/SVG/1.1/DTD/svg11.dtd">
<svg xmlns:xlink="http://www.w3.org/1999/xlink" t="1710500445165" class="icon" viewBox="0 0 1024 1024" version="1.1" xmlns="http://www.w3.org/2000/svg"
     p-id="4541">
    <path d="M676.88 928.46a2075.91 2075.91 0 0 1-330.62 0 277.6 277.6 0 0 1-254.6-254.6 2075.91 2075.91 0 0 1 0-330.62 277.6 277.6 0 0 1 254.6-254.6 2075.91 2075.91 0 0 1 330.62 0 277.6 277.6 0 0 1 254.6 254.6 2075.91 2075.91 0 0 1 0 330.62 277.6 277.6 0 0 1-254.6 254.6z"
          fill="#D156EF" p-id="4542"></path>
    <path d="M516.51 688.16c-19.5 0-38.16-7.77-54.06-22.53-2.18-2-36.89-34-72-81.61-48.57-65.81-73.2-127-73.2-182 0-52.66 20.83-102.16 58.66-139.36a200 200 0 0 1 141.16-57.54h0.44a200 200 0 0 1 140.78 57.5A196.35 196.35 0 0 1 717 402c0 32.12-7.91 66.14-23.51 101.12-12.23 27.4-29.2 55.49-50.44 83.5-34.42 45.38-68.49 75.41-72.59 79-15 14.18-33.68 22.17-52.61 22.51z m0.59-448a165.27 165.27 0 0 0-116.66 47.49A159.46 159.46 0 0 0 352.24 402c0 114.23 132.53 236.58 133.87 237.8l0.11 0.1c18.89 17.56 42 17.58 60.38 0l0.7-0.63C548.64 638.21 682 522.31 682 402a161.15 161.15 0 0 0-48.19-114.4 165.42 165.42 0 0 0-116.65-47.5z"
          fill="#FFFFFF" p-id="4543"></path>
    <path d="M517.05 489.8a97.36 97.36 0 1 1 97.35-97.36 97.47 97.47 0 0 1-97.35 97.36z m0-159.71a62.36 62.36 0 1 0 62.35 62.35 62.42 62.42 0 0 0-62.35-62.35zM773.06 768.26h-511.9a45.42 45.42 0 0 1-42.79-60.63l34.73-97.75a45.5 45.5 0 0 1 42.8-30.22h33.86a17.5 17.5 0 0 1 0 35H295.9a10.44 10.44 0 0 0-9.82 6.93l-34.74 97.76a10.42 10.42 0 0 0 9.82 13.91h511.9a10.42 10.42 0 0 0 9.82-13.91l-34.74-97.76a10.44 10.44 0 0 0-9.82-6.93h-34.54a17.5 17.5 0 0 1 0-35h34.54a45.5 45.5 0 0 1 42.8 30.22l34.73 97.75a45.42 45.42 0 0 1-42.79 60.63z"
          fill="#FFFFFF" p-id="4544"></path>
</svg>