<?xml version="1.0" standalone="no"?><!DOCTYPE svg PUBLIC "-//W3C//DTD SVG 1.1//EN"
        "http://www.w3.org/Graphics/SVG/1.1/DTD/svg11.dtd">
<svg xmlns:xlink="http://www.w3.org/1999/xlink" t="1710500406985" class="icon" viewBox="0 0 1024 1024" version="1.1" xmlns="http://www.w3.org/2000/svg"
     p-id="2182">
    <path d="M676.88 927.46a2075.91 2075.91 0 0 1-330.62 0 277.6 277.6 0 0 1-254.6-254.6 2075.91 2075.91 0 0 1 0-330.62 277.6 277.6 0 0 1 254.6-254.6 2075.91 2075.91 0 0 1 330.62 0 277.6 277.6 0 0 1 254.6 254.6 2075.91 2075.91 0 0 1 0 330.62 277.6 277.6 0 0 1-254.6 254.6z"
          fill="#D156EF" p-id="2183"></path>
    <path d="M673.06 797.5H355.68A102.5 102.5 0 0 1 253.3 695.12V318.88A102.5 102.5 0 0 1 355.68 216.5h317.38a102.5 102.5 0 0 1 102.38 102.38v376.24A102.5 102.5 0 0 1 673.06 797.5z m-317.38-546a67.45 67.45 0 0 0-67.38 67.38v376.24a67.45 67.45 0 0 0 67.38 67.38h317.38a67.45 67.45 0 0 0 67.38-67.38V318.88a67.45 67.45 0 0 0-67.38-67.38z"
          fill="#FFFFFF" p-id="2184"></path>
    <path d="M316.19 401.87h-91a17.5 17.5 0 1 1 0-35h91a17.5 17.5 0 0 1 0 35zM636.58 401.79H414.34a17.5 17.5 0 0 1 0-35h222.24a17.5 17.5 0 0 1 0 35zM636.58 523.5H414.34a17.5 17.5 0 1 1 0-35h222.24a17.5 17.5 0 0 1 0 35zM636.58 645.22H414.34a17.5 17.5 0 1 1 0-35h222.24a17.5 17.5 0 1 1 0 35zM316.19 645.13h-91a17.5 17.5 0 1 1 0-35h91a17.5 17.5 0 0 1 0 35z"
          fill="#FFFFFF" p-id="2185"></path>
</svg>