<?xml version="1.0" standalone="no"?><!DOCTYPE svg PUBLIC "-//W3C//DTD SVG 1.1//EN"
        "http://www.w3.org/Graphics/SVG/1.1/DTD/svg11.dtd">
<svg xmlns:xlink="http://www.w3.org/1999/xlink" t="1710500394621" class="icon" viewBox="0 0 1024 1024" version="1.1" xmlns="http://www.w3.org/2000/svg"
     p-id="1443">
    <path d="M676.88 927.46a2075.91 2075.91 0 0 1-330.62 0 277.6 277.6 0 0 1-254.6-254.6 2075.91 2075.91 0 0 1 0-330.62 277.6 277.6 0 0 1 254.6-254.6 2075.91 2075.91 0 0 1 330.62 0 277.6 277.6 0 0 1 254.6 254.6 2075.91 2075.91 0 0 1 0 330.62 277.6 277.6 0 0 1-254.6 254.6z"
          fill="#468EF7" p-id="1444"></path>
    <path d="M389.09 739.83h-110A70.19 70.19 0 0 1 209 669.72V409.36a70.19 70.19 0 0 1 70.1-70.11h427.35a70.19 70.19 0 0 1 70.11 70.11v115.8a17.5 17.5 0 0 1-35 0v-115.8a35.15 35.15 0 0 0-35.11-35.11H279.1a35.15 35.15 0 0 0-35.1 35.11v260.36a35.15 35.15 0 0 0 35.1 35.11h110a17.5 17.5 0 1 1 0 35z"
          fill="#FFFFFF" p-id="1445"></path>
    <path d="M633.17 366a17.49 17.49 0 0 1-17.5-17.5v-68.35a9.91 9.91 0 0 0-9.9-9.9h-226a9.91 9.91 0 0 0-9.89 9.9v68.36a17.5 17.5 0 0 1-35 0v-68.36a45 45 0 0 1 44.89-44.9h226a45 45 0 0 1 44.9 44.9v68.36a17.5 17.5 0 0 1-17.5 17.49zM551.09 805.85A74 74 0 0 1 510.15 793l-0.54-0.41-49.45-39.66a44.33 44.33 0 0 1 35-78.3 184.17 184.17 0 0 1 34.28 9.28l46.2-24.17-95.41-68.34-0.25-0.19c-10.48-7.79-15.55-22.45-12.91-37.35 2.3-13 10.25-22.73 21.28-26 42.47-12.65 66.7 1.45 73.23 6.17l117.74 69.26a1.56 1.56 0 0 0 1.35 0.11l66.8-24.89q0.3-0.12 0.6-0.21c56.88-18.89 76.41 6 80.72 13.3 7 10.92 9.31 22.89 6.59 34.66-5.22 22.58-27.09 36.22-29.85 37.87l-215.3 129.34c-13.92 9.27-27.37 12.38-39.14 12.38z m-20-40.92c2.93 2 20.31 12.52 40-0.75 0.25-0.17 0.51-0.33 0.77-0.49l215.71-129.6h0.06c3.88-2.39 12.24-9.3 13.69-15.75 0.37-1.67 0.48-4.09-2-7.93-0.15-0.23-0.3-0.47-0.44-0.71-2.41-2.53-13.65-6.75-39.42 1.75l-66.5 24.78a36.41 36.41 0 0 1-31.32-2.75L543 563.69a8.87 8.87 0 0 1-2.21-1.52c-1.94-1.27-14.26-8.29-39.33-1.65a9.2 9.2 0 0 0 0.25 3.21l102.49 73.39a28.84 28.84 0 0 1-3.42 49l-62.29 32.58a17.5 17.5 0 0 1-15.55 0.34 144.75 144.75 0 0 0-33.45-9.87 9.33 9.33 0 0 0-7.43 16.47zM799 609.82z m-0.8-1.4z m0 0zM540.57 562z"
          fill="#FFFFFF" p-id="1446"></path>
</svg>