<?xml version="1.0" standalone="no"?><!DOCTYPE svg PUBLIC "-//W3C//DTD SVG 1.1//EN"
        "http://www.w3.org/Graphics/SVG/1.1/DTD/svg11.dtd">
<svg xmlns:xlink="http://www.w3.org/1999/xlink" t="1710500420979" class="icon" viewBox="0 0 1024 1024" version="1.1" xmlns="http://www.w3.org/2000/svg"
     p-id="3070">
    <path d="M676.88 928.46a2075.91 2075.91 0 0 1-330.62 0 277.6 277.6 0 0 1-254.6-254.6 2075.91 2075.91 0 0 1 0-330.62 277.6 277.6 0 0 1 254.6-254.6 2075.91 2075.91 0 0 1 330.62 0 277.6 277.6 0 0 1 254.6 254.6 2075.91 2075.91 0 0 1 0 330.62 277.6 277.6 0 0 1-254.6 254.6z"
          fill="#F43D3D" p-id="3071"></path>
    <path d="M787.52 432.27H244.7a47 47 0 0 1-47-47V349.1a47 47 0 0 1 47-47h89.22a33.74 33.74 0 0 1 0.53-5.55l6.32-35.89a34.55 34.55 0 0 1 40-28 18.26 18.26 0 0 1 2.32 0.57L509.87 274a20.31 20.31 0 0 0 12.48 0l126.73-40.82a18.41 18.41 0 0 1 2.33-0.57 34.59 34.59 0 0 1 40 28l6.33 35.88a35.21 35.21 0 0 1 0.53 5.56h89.22a47 47 0 0 1 47 47v36.19a47 47 0 0 1-46.97 47.03zM244.7 337.12a12 12 0 0 0-12 12v36.19a12 12 0 0 0 12 12h542.82a12 12 0 0 0 12-12V349.1a12 12 0 0 0-12-12h-120.8a17.63 17.63 0 0 1-3.49-34.91l-6.14-34.8-124 39.94a55 55 0 0 1-33.94 0l-124-39.94-6.15 34.82a17.63 17.63 0 0 1-3.5 34.91z m117.71-0.53z m307.36 0zM711.23 784.56H322c-41.56 0-75.37-32.43-75.37-72.29v-226.8a17.5 17.5 0 1 1 35 0v226.8c0 20.56 18.11 37.29 40.37 37.29h389.23a40.64 40.64 0 0 0 28.14-11 34.69 34.69 0 0 0 11.17-25.33V485.47a17.5 17.5 0 0 1 35 0v227.8a69.38 69.38 0 0 1-22.1 50.73 75.54 75.54 0 0 1-52.21 20.56z"
          fill="#FFFFFF" p-id="3072"></path>
    <path d="M477.3 701.19a17.49 17.49 0 0 1-17.5-17.5V485.48a17.5 17.5 0 0 1 35 0v198.21a17.5 17.5 0 0 1-17.5 17.5zM555.05 701.19a17.5 17.5 0 0 1-17.5-17.5V485.48a17.5 17.5 0 0 1 35 0v198.21a17.49 17.49 0 0 1-17.5 17.5z"
          fill="#FFFFFF" p-id="3073"></path>
</svg>