<?xml version="1.0" standalone="no"?><!DOCTYPE svg PUBLIC "-//W3C//DTD SVG 1.1//EN"
        "http://www.w3.org/Graphics/SVG/1.1/DTD/svg11.dtd">
<svg xmlns:xlink="http://www.w3.org/1999/xlink" t="1710500427457" class="icon" viewBox="0 0 1024 1024" version="1.1" xmlns="http://www.w3.org/2000/svg"
     p-id="3367">
    <path d="M676.88 929.46a2075.91 2075.91 0 0 1-330.62 0 277.6 277.6 0 0 1-254.6-254.6 2075.91 2075.91 0 0 1 0-330.62 277.6 277.6 0 0 1 254.6-254.6 2075.91 2075.91 0 0 1 330.62 0 277.6 277.6 0 0 1 254.6 254.6 2075.91 2075.91 0 0 1 0 330.62 277.6 277.6 0 0 1-254.6 254.6z"
          fill="#F43D3D" p-id="3368"></path>
    <path d="M268.34 469.37a17.5 17.5 0 0 1-17.5-17.5V313.41a61 61 0 0 1 61-61h138.43a17.5 17.5 0 0 1 0 35H311.82a26 26 0 0 0-26 26v138.46a17.51 17.51 0 0 1-17.48 17.5zM756 469.37a17.5 17.5 0 0 1-17.5-17.5V313.41a26 26 0 0 0-26-26H574.07a17.5 17.5 0 0 1 0-35h138.45a61 61 0 0 1 61 61v138.46a17.5 17.5 0 0 1-17.52 17.5zM712.52 770.4H574.06a17.5 17.5 0 0 1 0-35h138.46a26 26 0 0 0 26-26V571a17.5 17.5 0 0 1 35 0v138.42a61 61 0 0 1-61 60.98zM450.27 770.4H311.82a61 61 0 0 1-61-61V571a17.5 17.5 0 0 1 35 0v138.42a26 26 0 0 0 26 26h138.45a17.5 17.5 0 1 1 0 35zM678.16 528.71h-330.9a17.5 17.5 0 1 1 0-35h330.9a17.5 17.5 0 0 1 0 35zM414.64 464.4a17.5 17.5 0 0 1-17.5-17.5v-46.61a17.5 17.5 0 0 1 35 0v46.61a17.51 17.51 0 0 1-17.5 17.5zM414.64 639.77a17.5 17.5 0 0 1-17.5-17.5v-46.61a17.5 17.5 0 0 1 35 0v46.61a17.51 17.51 0 0 1-17.5 17.5zM513.11 464.4a17.5 17.5 0 0 1-17.5-17.5v-46.61a17.5 17.5 0 0 1 35 0v46.61a17.51 17.51 0 0 1-17.5 17.5zM513.11 639.77a17.5 17.5 0 0 1-17.5-17.5v-46.61a17.5 17.5 0 0 1 35 0v46.61a17.51 17.51 0 0 1-17.5 17.5zM608.76 464.4a17.51 17.51 0 0 1-17.5-17.5v-46.61a17.5 17.5 0 1 1 35 0v46.61a17.5 17.5 0 0 1-17.5 17.5zM608.76 639.77a17.51 17.51 0 0 1-17.5-17.5v-46.61a17.5 17.5 0 0 1 35 0v46.61a17.5 17.5 0 0 1-17.5 17.5z"
          fill="#FFFFFF" p-id="3369"></path>
</svg>