<?xml version="1.0" standalone="no"?><!DOCTYPE svg PUBLIC "-//W3C//DTD SVG 1.1//EN"
        "http://www.w3.org/Graphics/SVG/1.1/DTD/svg11.dtd">
<svg xmlns:xlink="http://www.w3.org/1999/xlink" t="1710500435151" class="icon" viewBox="0 0 1024 1024" version="1.1" xmlns="http://www.w3.org/2000/svg"
     p-id="3952">
    <path d="M676.88 930.46a2075.91 2075.91 0 0 1-330.62 0 277.6 277.6 0 0 1-254.6-254.6 2075.91 2075.91 0 0 1 0-330.62 277.6 277.6 0 0 1 254.6-254.6 2075.91 2075.91 0 0 1 330.62 0 277.6 277.6 0 0 1 254.6 254.6 2075.91 2075.91 0 0 1 0 330.62 277.6 277.6 0 0 1-254.6 254.6z"
          fill="#F43D3D" p-id="3953"></path>
    <path d="M657.7 775.37a49.14 49.14 0 0 1-22.9-5.69l-115.74-60.85a14.09 14.09 0 0 0-13.12 0L390.2 769.68a49.1 49.1 0 0 1-71.2-51.76L341.05 589a14.1 14.1 0 0 0-4.05-12.45l-93.64-91.27a49.1 49.1 0 0 1 27.22-83.75L400 382.72a14.1 14.1 0 0 0 10.6-7.72l57.87-117.26a49.1 49.1 0 0 1 88.06 0L614.4 375a14.1 14.1 0 0 0 10.6 7.72l129.4 18.81a49.1 49.1 0 0 1 27.22 83.75L688 576.55a14.1 14.1 0 0 0-4 12.45l22.1 128.88a49.19 49.19 0 0 1-48.35 57.45zM512.5 672.21a49.07 49.07 0 0 1 22.85 5.64l115.74 60.85a14.1 14.1 0 0 0 20.46-14.87L649.45 595a49.12 49.12 0 0 1 14.12-43.47l93.64-91.27a14.11 14.11 0 0 0-7.82-24.06L620 417.36a49.08 49.08 0 0 1-37-26.86l-57.85-117.26a14.11 14.11 0 0 0-25.3 0L442 390.5a49.08 49.08 0 0 1-37 26.86l-129.4 18.8a14.11 14.11 0 0 0-7.82 24.06l93.64 91.27A49.12 49.12 0 0 1 375.55 595l-22.1 128.87a14.1 14.1 0 0 0 20.46 14.87l115.74-60.85a49.07 49.07 0 0 1 22.85-5.68z"
          fill="#FFFFFF" p-id="3954"></path>
    <path d="M599.38 474.52h-1.18c-44-2.93-60.4-33.42-63.49-40.15L508.82 385a17.5 17.5 0 0 1 31-16.28l26.14 49.76a10 10 0 0 1 0.74 1.57 31.75 31.75 0 0 0 7.21 9.2c6.77 6.09 15.73 9.54 26.64 10.27a17.5 17.5 0 0 1-1.15 35zM566.61 420z"
          fill="#FFFFFF" p-id="3955"></path>
    <path d="M654.18 464.61m-16.87 0a16.87 16.87 0 1 0 33.74 0 16.87 16.87 0 1 0-33.74 0Z" fill="#FFFFFF"
          p-id="3956"></path>
</svg>