<?xml version="1.0" standalone="no"?><!DOCTYPE svg PUBLIC "-//W3C//DTD SVG 1.1//EN"
        "http://www.w3.org/Graphics/SVG/1.1/DTD/svg11.dtd">
<svg xmlns:xlink="http://www.w3.org/1999/xlink" t="1710500457581" class="icon" viewBox="0 0 1024 1024" version="1.1" xmlns="http://www.w3.org/2000/svg"
     p-id="5427">
    <path d="M676.88 927.46a2075.91 2075.91 0 0 1-330.62 0 277.6 277.6 0 0 1-254.6-254.6 2075.91 2075.91 0 0 1 0-330.62 277.6 277.6 0 0 1 254.6-254.6 2075.91 2075.91 0 0 1 330.62 0 277.6 277.6 0 0 1 254.6 254.6 2075.91 2075.91 0 0 1 0 330.62 277.6 277.6 0 0 1-254.6 254.6z"
          fill="#F76E39" p-id="5428"></path>
    <path d="M488.61 769.16H306.35a84.14 84.14 0 0 1-84.05-84V316.4a84.14 84.14 0 0 1 84.05-84H621a84.13 84.13 0 0 1 84 84v150a17.5 17.5 0 1 1-35 0v-150a49.1 49.1 0 0 0-49-49H306.35a49.1 49.1 0 0 0-49.05 49v368.71a49.1 49.1 0 0 0 49.05 49h182.26a17.5 17.5 0 0 1 0 35z"
          fill="#FFFFFF" p-id="5429"></path>
    <path d="M585.38 368.11H341.93a17.5 17.5 0 1 1 0-35h243.45a17.5 17.5 0 0 1 0 35zM585.38 468.21H341.93a17.5 17.5 0 0 1 0-35h243.45a17.5 17.5 0 0 1 0 35zM499.13 568.31h-157.2a17.5 17.5 0 0 1 0-35h157.2a17.5 17.5 0 1 1 0 35zM465.42 668.41H341.93a17.5 17.5 0 1 1 0-35h123.49a17.5 17.5 0 0 1 0 35zM666.49 812.29c-82.71 0-150-67.3-150-150s67.3-150 150-150 150 67.29 150 150-67.28 150-150 150z m0-265a115 115 0 1 0 115 115 115.14 115.14 0 0 0-115-115.02z"
          fill="#FFFFFF" p-id="5430"></path>
    <path d="M725.1 679.78h-58.61a17.51 17.51 0 0 1-17.5-17.5v-76.17a17.5 17.5 0 1 1 35 0v58.67h41.11a17.5 17.5 0 1 1 0 35z"
          fill="#FFFFFF" p-id="5431"></path>
</svg>