<?xml version="1.0" standalone="no"?><!DOCTYPE svg PUBLIC "-//W3C//DTD SVG 1.1//EN"
        "http://www.w3.org/Graphics/SVG/1.1/DTD/svg11.dtd">
<svg xmlns:xlink="http://www.w3.org/1999/xlink" t="1710500418125" class="icon" viewBox="0 0 1024 1024" version="1.1" xmlns="http://www.w3.org/2000/svg"
     p-id="2922">
    <path d="M676.88 929.46a2075.91 2075.91 0 0 1-330.62 0 277.6 277.6 0 0 1-254.6-254.6 2075.91 2075.91 0 0 1 0-330.62 277.6 277.6 0 0 1 254.6-254.6 2075.91 2075.91 0 0 1 330.62 0 277.6 277.6 0 0 1 254.6 254.6 2075.91 2075.91 0 0 1 0 330.62 277.6 277.6 0 0 1-254.6 254.6z"
          fill="#468EF7" p-id="2923"></path>
    <path d="M622.12 527H400.66a17.5 17.5 0 0 1 0-35h221.46a17.5 17.5 0 1 1 0 35z" fill="#FFFFFF" p-id="2924"></path>
    <path d="M511.39 637.73a17.49 17.49 0 0 1-17.5-17.5V398.78a17.5 17.5 0 0 1 35 0v221.45a17.5 17.5 0 0 1-17.5 17.5z"
          fill="#FFFFFF" p-id="2925"></path>
    <path d="M511.39 788.62a279.11 279.11 0 1 1 197.36-81.75 277.32 277.32 0 0 1-197.36 81.75z m0-523.23A244.12 244.12 0 1 0 684 336.89a242.53 242.53 0 0 0-172.61-71.5z"
          fill="#FFFFFF" p-id="2926"></path>
</svg>