<svg xmlns="http://www.w3.org/2000/svg" width="13" height="12" viewBox="0 0 13 12">
    <path fill="#F28D49" fill-rule="nonzero" d="M12.636 5.686h-2.44v-.983a.362.362 0 0 0-.364-.36H.364a.362.362 0 0 0-.364.36v2.265C0 9.743 2.287 12 5.098 12c1.095 0 2.11-.342 2.942-.924 2.747-.073 4.96-2.301 4.96-5.03a.357.357 0 0 0-.107-.255.367.367 0 0 0-.257-.105zm-2.481 1.923h.527c-.186.322-.428.61-.714.849.087-.277.15-.561.187-.849zM.728 6.968V5.062h8.74v1.906a4.289 4.289 0 0 1-1.715 3.422.363.363 0 0 0-.124.09c-.715.504-1.588.8-2.531.8-2.41.001-4.37-1.934-4.37-4.312zm8.253 3.257c.164-.19.314-.394.449-.607a3.895 3.895 0 0 0 2.146-2.206.354.354 0 0 0 .04-.16V7.25v-.004a.36.36 0 0 0-.424-.356h-.996v-.485h2.06c-.156 1.85-1.5 3.374-3.275 3.82zM2.29 2.73c-.287.145-.72.364-.72.847a.36.36 0 0 0 .365.359.363.363 0 0 0 .364-.361c.023-.054.218-.153.323-.206.286-.145.719-.364.719-.847 0-.484-.433-.703-.719-.848-.105-.053-.3-.152-.323-.205v-.005c.023-.054.218-.153.323-.206.286-.145.719-.364.719-.848a.36.36 0 0 0-.365-.358.363.363 0 0 0-.364.36c-.023.054-.218.153-.323.206-.286.145-.718.364-.718.848 0 .483.432.703.718.848.105.053.3.152.323.204v.006c-.023.053-.218.152-.323.206zm2.856-.052c-.286.145-.718.364-.718.847a.36.36 0 0 0 .364.359.363.363 0 0 0 .364-.36c.023-.054.218-.153.323-.207.286-.145.719-.364.719-.847 0-.484-.433-.703-.719-.848-.105-.053-.3-.152-.323-.204v-.006c.023-.054.218-.153.323-.206.286-.145.719-.364.719-.848A.36.36 0 0 0 5.834 0a.363.363 0 0 0-.364.36c-.023.054-.218.153-.323.206-.286.145-.718.365-.718.848 0 .484.432.703.718.848.105.053.3.152.323.204v.006c-.023.054-.218.153-.323.206zm2.857.052c-.286.145-.718.364-.718.847a.36.36 0 0 0 .364.359.363.363 0 0 0 .364-.361c.023-.054.218-.153.323-.206.286-.145.718-.364.718-.847 0-.484-.432-.703-.718-.848-.105-.053-.3-.152-.323-.205v-.005c.023-.054.218-.153.323-.206.286-.145.719-.364.719-.848A.36.36 0 0 0 8.69.052a.363.363 0 0 0-.364.36c-.023.054-.218.153-.323.206-.286.145-.718.364-.718.848 0 .483.432.703.718.848.105.053.3.152.323.204v.006c-.023.053-.218.152-.323.206z"/>
</svg>
